<svg width="192" height="255" viewBox="0 0 192 255" fill="none" xmlns="http://www.w3.org/2000/svg">
<path d="M25.8289 33.9778C27.1803 63.0325 28.5317 92.1622 27.4806 121.292C25.8289 165.812 18.4714 210.708 25.904 254.628" stroke="#9DA680" stroke-width="1.06593" stroke-miterlimit="10"/>
<path d="M26.2795 37.0559L20.1983 17.1606C18.922 13.0314 17.6457 8.60185 19.2223 4.54771C19.9731 2.59572 21.6999 0.793874 23.7269 1.0191C25.6789 1.16926 26.9552 3.04617 27.781 4.77294C32.7361 14.7581 31.9853 27.2959 26.3545 37.0559H26.2795Z" stroke="#9DA680" stroke-width="1.06593" stroke-miterlimit="10"/>
<path d="M10.946 34.6301C11.7809 34.4333 12.5515 34.5106 12.9851 34.716L13.0437 34.7434L13.1042 34.7639C14.4501 35.2125 15.4346 36.0493 16.323 36.8635V36.8645C18.146 38.5417 19.7347 40.3505 21.0281 42.3625L21.0349 42.3713L21.0408 42.3811C22.1034 43.9607 23.0015 45.6411 23.7156 47.383C22.7135 45.7692 21.6134 44.2419 20.4109 42.8235L20.4021 42.8127L19.8269 42.1604C18.4775 40.6497 17.0268 39.1861 15.3816 37.9485C14.4306 37.1226 13.4792 36.5324 12.6619 36.26C12.2594 36.1258 11.7846 36.0333 11.323 36.1194C10.8706 36.2038 10.4347 36.4693 10.198 36.9358C9.59029 37.7023 9.61693 38.7584 9.76439 39.5881C9.93671 40.5573 10.3503 41.656 10.8904 42.7434V42.7444C11.8394 44.8798 13.1729 46.8329 14.5281 48.7151L14.5417 48.7336L14.5554 48.7512C15.624 50.1085 16.8387 51.3884 18.199 52.5227C16.6562 51.6285 15.2232 50.4958 13.9783 49.2238L13.9587 49.2033L13.9382 49.1848L13.613 48.8772C12.0104 47.3174 10.7471 45.4391 9.65209 43.386C9.04879 42.2548 8.52152 41.2545 8.2556 39.925L8.25072 39.8996L8.24389 39.8752C7.92772 38.6102 8.07496 37.0242 9.0183 35.8449L9.04369 35.8127L9.06713 35.7795C9.43589 35.2387 10.122 34.8244 10.946 34.6301Z" fill="#050505" stroke="#9DA680" stroke-width="2.13187"/>
<path d="M47.5007 52.1476C48.1024 51.886 49.1216 51.8013 50.1276 52.0841C51.1061 52.3593 51.9222 52.9372 52.3259 53.841C53.1293 55.7624 52.6711 57.3619 52.1511 58.9982C51.5671 60.5283 50.9181 61.9674 50.1325 63.3244C48.5255 66.1 46.5789 68.6111 44.1608 70.5314L44.1432 70.5451L44.1266 70.5587C42.4169 72.0353 40.5315 73.2761 38.5397 74.256C40.4039 73.0266 42.1206 71.6065 43.6452 69.9972L43.6647 69.9757C45.5241 67.9018 47.2814 65.659 48.655 63.1291L48.9245 62.6193C49.576 61.3546 50.2625 59.8499 50.7009 58.465C50.9197 57.7736 51.0877 57.0774 51.1491 56.4367C51.2019 55.8855 51.1852 55.2727 50.9684 54.7209C50.9108 54.4055 50.7556 54.1177 50.5114 53.8947C50.227 53.6351 49.889 53.5209 49.6139 53.4699C49.0704 53.3692 48.4483 53.4547 47.8737 53.6173C46.7113 53.9464 45.3205 54.7135 44.2731 55.9171C43.2095 56.9478 42.2588 58.1567 41.3669 59.3273C40.4482 60.5331 39.6006 61.6864 38.6979 62.6974L38.6823 62.715L38.6677 62.7336C37.57 64.0777 36.4233 65.4268 35.2399 66.8087L37.6911 62.7755C39.5108 59.8944 41.0329 57.3585 43.2829 54.8908C44.3943 53.7129 45.7462 52.7153 47.4011 52.1857L47.4518 52.1691L47.5007 52.1476Z" fill="#050505" stroke="#9DA680" stroke-width="2.13187"/>
<path d="M12.5622 80.7896C14.0175 79.7418 16.31 79.8859 17.739 80.8179L17.7527 80.8267L17.7673 80.8355C19.1178 81.6575 20.1245 82.7444 20.9206 83.899L21.2487 84.398C22.9367 87.1894 24.3023 90.0815 25.0173 93.0845L25.0212 93.1021L25.0261 93.1197C25.6258 95.3098 26.0471 97.5131 26.3386 99.7242C25.7802 97.5301 25.1429 95.3686 24.3474 93.2837L24.3435 93.272L23.9069 92.1939C22.9409 89.8677 21.8342 87.6203 20.4196 85.5562L20.0876 85.0835C19.2354 83.7959 18.151 82.7112 17.0202 82.0952C15.9224 81.4974 14.5101 81.2271 13.3591 82.1265C12.1917 82.8627 11.5602 84.1016 11.322 85.4331C11.0818 86.7761 11.2185 88.305 11.6599 89.8052V89.8062C12.4372 92.7598 13.6743 95.6114 15.0407 98.3443L15.0476 98.3579L15.0544 98.3706C16.2407 100.587 17.6518 102.685 19.2448 104.662C17.4048 102.912 15.7484 100.938 14.3318 98.7837L14.3249 98.773L14.3171 98.7613L13.987 98.273C12.3673 95.8123 11.219 93.084 10.2487 90.1734L10.2458 90.1656L10.2429 90.1587L10.156 89.898C9.73404 88.5691 9.51446 86.8781 9.78195 85.2495C10.0635 83.5354 10.8742 81.927 12.5349 80.8091L12.5622 80.7896Z" fill="#050505" stroke="#9DA680" stroke-width="2.13187"/>
<path d="M49.3103 111.733C51.2588 111.209 53.8274 110.818 55.6189 112.94C57.1241 115.013 56.6302 117.593 55.7322 119.389L55.7283 119.396L55.7253 119.403C54.7797 121.367 53.7734 122.872 52.698 124.638C50.5444 127.978 48.1895 131.21 45.4109 134.062C43.4491 136.075 41.3704 137.951 39.0984 139.487C41.2479 137.746 43.1847 135.745 44.905 133.594C47.3417 130.548 49.5471 127.278 51.5222 123.861C52.4688 122.259 53.6488 120.389 54.3679 118.744C54.7289 117.918 55.0154 117.06 55.0769 116.253C55.1365 115.469 54.9867 114.637 54.3923 113.97C54.1587 113.614 53.8161 113.396 53.5261 113.264C53.1793 113.107 52.785 113.015 52.3884 112.969C51.6005 112.878 50.6534 112.949 49.6921 113.196V113.195C47.8286 113.618 46.1862 114.623 44.6628 115.689L44.6375 115.707C41.5765 117.983 39.0829 121.186 36.6355 124.227L36.6306 124.233L36.6257 124.24C35.0065 126.314 33.4568 128.448 31.9685 130.63C33.2443 128.281 34.6255 125.985 36.1023 123.757L36.1033 123.755C38.2729 120.464 40.5992 117.208 43.8376 114.617L43.8464 114.609C45.3975 113.34 47.2935 112.289 49.3103 111.733Z" fill="#050505" stroke="#9DA680" stroke-width="2.13187"/>
<path d="M4.07227 141.163C5.59642 140.297 6.96405 140.464 8.12891 141.05C9.36606 141.673 10.358 142.771 10.8818 143.623L10.8984 143.651L10.918 143.677C12.3052 145.649 13.4715 147.689 14.418 149.799V149.8C16.3257 154.129 17.5063 158.622 18.3223 163.221C18.9414 166.711 19.391 170.075 19.833 173.682C19.5839 172.517 19.3367 171.321 19.083 170.108C18.6723 168.145 18.2441 166.144 17.7617 164.199L17.5518 163.369C16.4926 159.203 15.2855 155.039 13.4893 151.172L13.1221 150.403C12.2392 148.525 10.9471 146.224 9.64746 144.55C9.00622 143.725 8.29839 142.966 7.57812 142.515C7.21424 142.287 6.77413 142.092 6.28613 142.063C5.78446 142.034 5.30424 142.187 4.90527 142.521C4.52926 142.787 4.24411 143.175 4.0332 143.53C3.79325 143.934 3.58112 144.41 3.40137 144.908C3.04657 145.891 2.7833 147.058 2.69727 148.127C2.45629 150.295 2.6996 152.661 3.00098 154.846C3.62174 159.347 5.24465 163.733 7.05859 167.89L7.06152 167.898L7.06543 167.905C8.47697 171.01 10.1753 173.995 12.0137 176.908C9.92623 174.15 8.00625 171.258 6.34766 168.162L6.3418 168.152L6.33691 168.142L5.91895 167.382C3.87098 163.561 2.4026 159.366 1.57715 155.038C1.2072 152.667 0.928912 150.388 1.13672 147.991C1.59436 145.369 1.66439 143.23 4.07227 141.163Z" fill="#050505" stroke="#9DA680" stroke-width="2.13187"/>
<path d="M41.7145 183.122C43.7319 182.15 45.4947 180.908 48.2506 181.965C48.8111 182.202 49.2613 182.726 49.5456 183.407C49.8371 184.105 49.8789 184.793 49.7917 185.163L49.7829 185.202L49.777 185.241C49.5664 186.575 49.2942 187.317 48.985 188.322C48.3962 190.235 47.6599 192.224 46.8512 194.062H46.8503L46.8473 194.07C45.2217 197.838 43.241 201.425 40.693 204.555L40.6823 204.568L40.6715 204.581C39.0344 206.732 37.2201 208.748 35.2585 210.584C37.0258 208.585 38.6413 206.464 40.0876 204.231L40.0915 204.223C42.2174 200.882 44.134 197.36 45.5202 193.588L45.5211 193.589C46.1998 191.78 46.8819 189.885 47.4899 187.985L47.5006 187.952L47.5094 187.918C47.6164 187.491 47.7542 187.044 47.8942 186.554C48.0234 186.102 48.1618 185.589 48.2106 185.15L48.2165 185.091V185.032C48.2165 184.869 48.2163 184.73 48.2135 184.623C48.2113 184.539 48.2068 184.375 48.1657 184.21C48.1413 184.113 48.0962 183.979 48.0045 183.839C47.9067 183.691 47.7883 183.584 47.6784 183.511C47.5869 183.45 47.5019 183.413 47.487 183.407C47.4547 183.392 47.4699 183.399 47.4772 183.403L47.4762 183.404C47.0736 183.186 46.6246 183.158 46.2956 183.17C45.9062 183.185 45.4839 183.262 45.0661 183.373C44.2345 183.594 43.2953 183.984 42.4411 184.469C40.737 185.364 39.2286 186.643 37.86 187.936L37.8542 187.941L37.8493 187.947C35.0309 190.687 32.8656 194.18 30.9118 197.562L30.9088 197.569L30.9049 197.575C29.3655 200.328 27.9546 203.138 26.653 206.003C27.6621 203.025 28.8431 200.104 30.1725 197.272L30.1754 197.264C31.8734 193.573 33.9184 190.076 36.819 186.958C38.258 185.449 39.8918 184.106 41.7145 183.122Z" fill="#050505" stroke="#9DA680" stroke-width="2.13187"/>
<path d="M13.8492 205.261C15.2546 205.932 16.3513 206.871 17.3844 207.901C18.3477 209.02 19.1688 210.212 19.7057 211.67C18.3561 211.026 17.2617 210.089 16.1832 209.013C15.2133 207.836 14.3746 206.649 13.8492 205.261Z" fill="#050505" stroke="#9DA680" stroke-width="2.13187"/>
<path d="M29.2813 185.3C28.904 186.987 28.2041 188.424 27.3302 189.866C26.3975 191.262 25.3789 192.506 23.9757 193.555C24.339 191.933 25.0904 190.447 25.9688 188.997C26.9581 187.593 27.9691 186.311 29.2813 185.3Z" fill="#050505" stroke="#9DA680" stroke-width="2.13187"/>
<path d="M17.0884 140.471C18.6321 142.148 19.848 144.032 20.98 146.037C22.013 148.104 22.9095 150.158 23.4527 152.393C21.9115 150.701 20.6945 148.794 19.5562 146.83C18.524 144.762 17.6294 142.707 17.0884 140.471Z" fill="#050505" stroke="#9DA680" stroke-width="2.13187"/>
<path d="M37.2126 106.998C36.3697 109.241 35.167 111.293 33.819 113.317C32.4182 115.288 30.9306 117.113 29.1022 118.719C29.9442 116.495 31.141 114.459 32.4792 112.45C33.8913 110.462 35.3826 108.597 37.2126 106.998Z" fill="#050505" stroke="#9DA680" stroke-width="2.13187"/>
<path d="M22.5267 73.2342C23.7084 74.2119 24.6005 75.4356 25.4242 76.7703C26.1282 78.1331 26.6891 79.5373 26.8929 81.0301C25.6408 80.0002 24.7471 78.7993 23.9779 77.5203C23.2668 76.1959 22.723 74.8357 22.5267 73.2342Z" fill="#050505" stroke="#9DA680" stroke-width="2.13187"/>
<path d="M33.988 50.8304C33.5881 52.5453 32.8553 54.0635 31.9811 55.5579C31.001 56.9988 29.9442 58.3115 28.5554 59.3919C28.9553 57.6772 29.688 56.1587 30.5622 54.6644C31.5423 53.2236 32.5992 51.9107 33.988 50.8304Z" fill="#050505" stroke="#9DA680" stroke-width="2.13187"/>
<path d="M13.8922 129.491C16.2056 129.491 18.0814 131.366 18.0816 133.679C18.0816 135.993 16.2057 137.868 13.8922 137.868C11.5784 137.868 9.70272 135.993 9.70272 133.679C9.70297 131.366 11.5785 129.491 13.8922 129.491Z" fill="#9DA680" stroke="#9DA680" stroke-width="2.13187"/>
<path d="M40.8438 95.7061C43.1574 95.7061 45.033 97.5811 45.0333 99.8946C45.0333 102.208 43.1576 104.084 40.8438 104.084C38.5303 104.084 36.6554 102.208 36.6554 99.8946C36.6556 97.5812 38.5304 95.7064 40.8438 95.7061Z" fill="#9DA680" stroke="#9DA680" stroke-width="2.13187"/>
<path d="M19.1468 62.5972C21.4606 62.5972 23.3363 64.4729 23.3363 66.7867C23.336 69.1002 21.4604 70.9752 19.1468 70.9752C16.8334 70.9749 14.9586 69.1001 14.9583 66.7867C14.9583 64.4731 16.8333 62.5975 19.1468 62.5972Z" fill="#9DA680" stroke="#9DA680" stroke-width="2.13187"/>
<path d="M37.5404 40.4497C39.854 40.4497 41.7296 42.3246 41.7299 44.6382C41.7299 46.9519 39.8542 48.8276 37.5404 48.8276C35.2269 48.8274 33.352 46.9518 33.352 44.6382C33.3522 42.3248 35.227 40.4499 37.5404 40.4497Z" fill="#9DA680" stroke="#9DA680" stroke-width="2.13187"/>
<path d="M33.1119 174.837C35.4253 174.837 37.3011 176.712 37.3013 179.025C37.3013 181.339 35.4255 183.215 33.1119 183.215C30.7981 183.215 28.9224 181.339 28.9224 179.025C28.9227 176.712 30.7982 174.837 33.1119 174.837Z" fill="#9DA680" stroke="#9DA680" stroke-width="2.13187"/>
<path d="M9.61193 195.558C11.9257 195.558 13.8014 197.434 13.8014 199.747C13.8011 202.061 11.9255 203.936 9.61193 203.936C7.29854 203.936 5.4237 202.061 5.42345 199.747C5.42345 197.434 7.2984 195.558 9.61193 195.558Z" fill="#9DA680" stroke="#9DA680" stroke-width="2.13187"/>
<path d="M145.399 145.462C142.849 154.386 140.79 163.359 139.221 172.43C137.357 181.452 136.573 190.817 137.652 199.987C139.515 218.423 143.339 236.419 146.183 254.806H145.938C140.201 237.203 136.475 218.717 136.279 200.036C136.328 190.719 136.279 181.403 137.21 172.087C138.387 162.819 141.035 153.699 145.154 145.314L145.399 145.413V145.462Z" fill="#9DA680"/>
<path d="M145.007 145.658C144.712 141.392 145.252 137.42 146.38 133.399C147.605 129.428 149.42 125.603 152.116 122.416C154.813 119.229 158.197 116.728 161.776 114.767C165.306 112.707 169.572 111.972 172.514 109.471L174.231 108L173.593 110.256C171.436 117.807 168.984 125.554 164.522 132.37C162.315 135.802 159.57 138.842 156.284 141.294C152.999 143.696 149.223 145.462 145.007 145.609V145.658ZM145.154 145.462C148.782 144.432 152.264 142.421 155.107 139.872C158 137.322 160.305 134.233 162.413 131.046C166.483 124.524 169.327 117.169 172.318 109.814L173.397 110.599C169.769 113.001 165.601 113.296 162.217 115.502C158.736 117.463 155.99 120.504 153.735 123.691C151.43 126.878 149.567 130.31 148.194 134.037C146.772 137.714 145.938 141.735 145.203 145.511L145.154 145.462Z" fill="#9DA680"/>
<path d="M142.212 152.13C141.623 149.237 141.035 146.884 140.643 144.579C140.201 142.176 139.319 139.774 138.24 137.665C137.161 135.508 135.592 133.448 133.827 131.536C132.062 129.624 130.1 127.859 128.629 125.554L129.806 125.211C130.297 127.908 130.738 130.555 131.032 133.252C131.277 135.998 131.817 138.548 132.552 141.049C133.288 143.5 134.317 145.952 135.886 147.913C137.406 149.924 139.711 151.444 142.163 152.13H142.212ZM142.359 152.326C139.368 152.62 136.573 151.248 134.464 149.237C132.356 147.178 130.934 144.579 130.051 141.833C129.169 139.087 128.875 136.243 128.777 133.546C128.629 130.801 128.58 128.055 128.58 125.309V122.171L129.757 124.917C130.738 127.221 132.552 129.133 134.415 130.899C136.328 132.615 138.485 134.233 140.054 136.587C141.525 138.94 142.31 141.588 142.555 144.334C142.653 147.227 142.555 150.022 142.408 152.277L142.359 152.326Z" fill="#9DA680"/>
<path d="M137.406 170.91C137.063 168.9 136.573 167.183 136.23 165.565C135.984 163.996 135.445 162.231 134.857 160.564C133.729 157.181 132.111 154.042 130.247 151.051C128.384 148.06 126.08 145.314 123.334 142.912C120.686 140.46 117.695 138.303 115.145 135.606L116.224 134.968C119.411 142.127 118.774 150.071 121.765 156.494C123.285 159.681 125.491 162.525 128.237 164.879C130.934 167.281 134.219 169.243 137.357 170.91H137.406ZM137.553 171.106C133.68 170.223 130.247 168.654 127.06 166.399C123.922 164.143 121.176 161.152 119.509 157.573C117.744 153.993 117.254 150.071 116.812 146.344C116.371 142.618 116.126 138.94 115.047 135.459L113.968 131.928L116.175 134.821C118.283 137.665 121.078 140.068 123.922 142.274C126.717 144.53 129.708 146.835 131.964 149.924C134.219 152.964 135.69 156.445 136.671 160.025C137.75 163.408 137.455 167.968 137.553 171.106Z" fill="#9DA680"/>
<path d="M136.524 189.886C136.524 185.767 135.102 181.599 132.797 178.216C130.542 174.735 127.354 172.038 123.922 169.635C120.539 167.183 116.812 165.026 112.939 163.261C109.065 161.397 105.044 159.877 101.171 158.014L101.955 157.033C105.24 160.319 106.662 164.879 108.035 168.949C109.359 173.116 111.173 176.843 113.919 179.981C116.665 183.119 120.098 185.669 124.02 187.287C127.894 188.954 132.307 189.739 136.524 189.935V189.886ZM136.671 190.082C132.16 190.768 127.698 190.425 123.334 189.052C119.019 187.63 114.998 185.081 112.007 181.599C108.869 178.265 106.957 173.803 105.829 169.586C104.554 165.369 103.622 161.152 100.974 157.867L98.6209 154.974L101.759 156.837C105.388 159.044 109.31 160.858 113.282 162.427C117.205 164.094 121.323 165.614 125.05 167.919C128.776 170.223 132.111 173.362 134.366 177.235C136.573 181.109 137.75 185.62 136.671 190.082Z" fill="#9DA680"/>
<path d="M139.858 226.759C136.328 222.591 132.65 218.08 128.727 214.059C124.854 209.941 120.686 206.165 116.469 202.487C112.203 198.81 107.839 195.182 103.034 192.19C98.2777 189.101 93.1782 186.601 87.9316 184.541L88.7652 183.757C91.2659 189.199 93.7666 194.544 96.8067 199.595C99.7977 204.645 103.524 209.156 107.937 212.932C112.399 216.658 117.45 219.698 122.892 221.758C128.286 223.866 134.464 224.7 139.858 226.808V226.759ZM140.054 226.906C133.974 225.729 128.188 225.386 122.255 223.572C116.42 221.758 110.977 218.767 106.27 214.844C101.514 210.97 97.7383 205.969 94.7963 200.673C91.8543 195.378 89.7459 189.739 87.5884 184.198L87 182.727L88.3729 183.364C93.5214 185.816 98.5228 188.513 103.475 191.406C108.379 194.299 113.233 197.339 117.744 200.918C122.255 204.449 126.325 208.568 130.1 212.834C133.827 217.247 137.21 221.66 140.005 226.906H140.054Z" fill="#9DA680"/>
<path d="M140.544 225.484C145.301 225.926 150.253 225.484 154.862 224.209C159.52 223.033 163.884 220.924 168.052 218.521C172.22 216.119 176.241 213.324 179.82 209.99C183.449 206.704 186.636 202.978 189.774 199.202L190.313 200.281C180.36 201.36 170.7 203.909 161.335 207.293C156.676 209.009 152.067 210.823 148.145 213.716C144.369 216.511 140.643 220.581 140.593 225.533L140.544 225.484ZM140.348 225.631C139.417 220.238 143.045 215.432 146.87 212.147C150.891 208.813 155.647 206.606 160.403 204.841C169.916 201.262 180.016 199.055 190.166 198.908H191.735L190.657 199.987L180.36 210.529C176.829 213.961 173.25 217.443 169.082 220.189C160.746 225.631 150.106 228.426 140.348 225.582V225.631Z" fill="#9DA680"/>
<path d="M136.671 191.406C140.495 192.436 144.663 192.828 148.635 192.436C152.656 192.141 156.529 191.063 160.403 189.886C164.277 188.709 168.15 187.336 171.975 185.767C175.8 184.247 179.526 182.482 183.253 180.619L183.351 181.844C175.015 180.422 166.581 180.226 158.246 181.207C154.078 181.746 149.959 182.433 146.134 183.953C142.408 185.473 138.534 187.777 136.72 191.455L136.671 191.406ZM136.426 191.504C137.553 186.993 141.476 184.149 145.301 182.139C149.272 180.177 153.587 179.148 157.902 178.608C166.483 177.48 175.358 178.167 183.596 180.521L185.459 181.06L183.694 181.746C179.869 183.217 176.045 184.737 172.318 186.503C168.592 188.17 164.963 190.278 161.04 191.749C153.293 194.642 144.075 195.623 136.426 191.504Z" fill="#9DA680"/>
<path d="M138.093 169.194C140.839 170.714 144.075 171.351 147.213 171.155C150.351 171.057 153.391 170.027 156.382 168.949C159.422 167.87 162.511 166.742 165.552 165.418C168.641 164.192 171.681 162.917 175.064 162.28V163.555C168.395 162.721 161.874 161.643 155.402 161.839C152.214 161.986 149.027 162.476 146.134 163.751C143.192 164.928 140.495 167.036 138.142 169.145L138.093 169.194ZM137.848 169.194C139.76 166.203 142.163 163.8 145.252 162.084C148.292 160.368 151.822 159.485 155.255 159.387C162.168 159.044 168.837 160.564 175.26 162.329L179.183 163.408L175.211 163.653C172.024 163.849 168.837 164.83 165.895 166.252C162.904 167.625 160.207 169.488 157.118 170.861C154.078 172.234 150.645 173.116 147.213 173.018C143.781 172.871 140.299 171.842 137.848 169.194Z" fill="#9DA680"/>
<path d="M142.898 152.081C145.497 153.503 148.537 154.239 151.479 154.239C154.47 154.337 157.363 153.65 160.354 152.964C163.296 152.277 166.287 151.346 169.327 150.512C172.318 149.678 175.26 148.551 178.153 147.374L178.349 148.649C175.211 148.894 172.024 149.041 168.788 148.796C165.552 148.551 162.462 147.962 159.422 147.57C156.382 147.276 153.342 147.031 150.4 147.57C147.507 148.06 144.712 149.678 142.898 152.081ZM142.653 152.13C143.781 148.943 146.674 146.687 149.91 145.707C153.146 144.726 156.48 144.677 159.668 145.02C162.904 145.265 165.993 146.099 168.984 146.491C172.024 146.884 175.162 147.08 178.3 147.325L182.272 147.619L178.447 148.6C175.456 149.384 172.465 150.169 169.572 151.297C166.63 152.228 163.933 153.895 160.893 154.925C157.902 155.955 154.617 156.445 151.332 156.151C148.096 155.759 144.908 154.631 142.604 152.179L142.653 152.13Z" fill="#9DA680"/>
<path d="M144.908 144.971C146.968 140.019 150.989 136.832 154.568 133.644C158.147 130.506 161.776 127.025 162.953 122.22C162.217 127.123 158.736 131.095 155.402 134.527C152.067 138.008 148.537 141.49 147.164 145.805L144.859 144.971H144.908Z" fill="#9DA680"/>
<path d="M141.917 153.993C139.368 151.198 138.485 147.717 137.652 144.53C136.818 141.343 135.984 138.058 133.729 135.508C136.279 137.763 137.602 141.098 138.828 144.138C140.054 147.227 141.378 150.316 143.634 152.277L141.917 154.042V153.993Z" fill="#9DA680"/>
<path d="M139.024 226.955C135.396 226.073 132.356 223.915 130.1 221.414C127.698 218.963 125.393 216.462 123.04 214.157C118.283 209.499 112.89 205.38 107.153 201.948C113.135 205.037 118.774 208.813 123.873 213.275C126.423 215.53 128.825 217.835 131.277 220.041C133.631 222.395 136.475 224.062 139.466 224.602L138.975 227.004L139.024 226.955Z" fill="#9DA680"/>
<path d="M137.455 171.94C134.366 168.949 133.19 165.075 131.866 161.594C130.591 158.112 129.022 154.484 125.834 152.326C129.267 154.141 131.326 157.769 132.993 161.152C134.661 164.536 136.279 168.066 139.074 170.125L137.455 171.989V171.94Z" fill="#9DA680"/>
<path d="M138.044 168.802C139.368 167.331 141.084 166.595 142.751 166.301C144.467 165.958 146.134 166.056 147.703 166.203C150.842 166.546 153.98 167.232 157.02 166.203C154.127 167.674 150.743 167.38 147.654 167.478C144.614 167.478 141.378 168.262 139.956 170.371L138.044 168.851V168.802Z" fill="#9DA680"/>
<path d="M141.917 151.444C143.487 149.727 145.595 149.826 147.017 150.12C148.684 150.267 150.008 150.61 151.528 150.708C154.47 150.953 157.461 150.855 160.452 150.316C157.608 151.247 154.568 151.787 151.528 151.934C150.008 152.032 148.39 151.934 147.017 151.934C145.595 151.836 144.271 152.179 143.879 152.964L141.966 151.444H141.917Z" fill="#9DA680"/>
<path d="M136.867 189.494C138.24 189.984 139.809 189.984 141.378 189.739C142.947 189.445 144.565 188.758 146.183 188.317C149.371 187.238 152.754 186.306 156.137 186.012C152.803 186.748 149.714 187.974 146.576 189.494C144.958 190.18 143.536 191.014 141.819 191.553C140.103 192.043 138.191 192.338 136.23 191.896L136.867 189.543V189.494Z" fill="#9DA680"/>
<path d="M136.573 191.945C134.023 190.768 132.062 188.807 130.444 186.846L125.883 180.815C122.745 176.941 118.921 173.656 114.557 171.106C119.117 173.313 123.285 176.304 126.815 180.03L131.817 185.669C133.484 187.483 135.396 189.003 137.504 189.739L136.573 191.994V191.945Z" fill="#9DA680"/>
<path d="M139.368 224.307C143.29 219.257 149.076 216.658 154.666 214.746C160.305 212.834 166.042 211.461 171.19 208.519C166.287 211.853 160.501 213.618 155.107 215.923C149.763 218.178 144.467 221.12 141.378 225.778L139.368 224.356V224.307Z" fill="#9DA680"/>
</svg>
